<?xml version="1.0" encoding="UTF-8" standalone="no"?>
<!DOCTYPE svg PUBLIC "-//W3C//DTD SVG 1.1//EN"
 "http://www.w3.org/Graphics/SVG/1.1/DTD/svg11.dtd">
<!-- Generated by graphviz version 2.44.1 (20200629.0846)
 -->
<!-- Title: test Pages: 1 -->
<svg width="196pt" height="215pt"
 viewBox="0.00 0.00 196.00 214.50" xmlns="http://www.w3.org/2000/svg" xmlns:xlink="http://www.w3.org/1999/xlink">
<g id="graph0" class="graph" transform="scale(1 1) rotate(0) translate(4 210.5)">
<title>test</title>
<polygon fill="white" stroke="transparent" points="-4,4 -4,-210.5 192,-210.5 192,4 -4,4"/>
<!-- Node1 -->
<g id="node1" class="node">
<title>Node1</title>
<g id="a_node1"><a xlink:title=" ">
<polygon fill="#bfbfbf" stroke="black" points="0,-93.5 0,-112.5 33,-112.5 33,-93.5 0,-93.5"/>
<text text-anchor="middle" x="16.5" y="-100.5" font-family="Helvetica,sans-Serif" font-size="10.00">test</text>
</a>
</g>
</g>
<!-- Node2 -->
<g id="node2" class="node">
<title>Node2</title>
<g id="a_node2"><a target="_blank" xlink:href="http://en.cppreference.com/w/cpp/container/priority_queue/empty.html#" target="_top" xlink:title=" ">
<polygon fill="white" stroke="black" points="80,-176 80,-206 177,-206 177,-176 80,-176"/>
<text text-anchor="start" x="88" y="-194" font-family="Helvetica,sans-Serif" font-size="10.00">std::priority_queue</text>
<text text-anchor="middle" x="128.5" y="-183" font-family="Helvetica,sans-Serif" font-size="10.00">::empty</text>
</a>
</g>
</g>
<!-- Node1&#45;&gt;Node2 -->
<g id="edge1" class="edge">
<title>Node1&#45;&gt;Node2</title>
<path fill="none" stroke="midnightblue" d="M23.33,-112.77C31.85,-126.33 48.9,-150.89 69,-166 71.32,-167.74 73.77,-169.39 76.32,-170.94"/>
<polygon fill="midnightblue" stroke="midnightblue" points="74.78,-174.09 85.23,-175.87 78.17,-167.97 74.78,-174.09"/>
</g>
<!-- Node3 -->
<g id="node3" class="node">
<title>Node3</title>
<g id="a_node3"><a target="_blank" xlink:href="http://en.cppreference.com/w/cpp/container/priority_queue/pop.html#" target="_top" xlink:title=" ">
<polygon fill="white" stroke="black" points="69,-137.5 69,-156.5 188,-156.5 188,-137.5 69,-137.5"/>
<text text-anchor="middle" x="128.5" y="-144.5" font-family="Helvetica,sans-Serif" font-size="10.00">std::priority_queue::pop</text>
</a>
</g>
</g>
<!-- Node1&#45;&gt;Node3 -->
<g id="edge2" class="edge">
<title>Node1&#45;&gt;Node3</title>
<path fill="none" stroke="midnightblue" d="M33.02,-111.23C43.12,-116.41 56.65,-123.02 69,-128 74.39,-130.17 80.14,-132.28 85.84,-134.25"/>
<polygon fill="midnightblue" stroke="midnightblue" points="84.74,-137.58 95.33,-137.43 86.96,-130.94 84.74,-137.58"/>
</g>
<!-- Node4 -->
<g id="node4" class="node">
<title>Node4</title>
<g id="a_node4"><a target="_blank" xlink:href="http://en.cppreference.com/w/cpp/container/priority_queue/push.html#" target="_top" xlink:title=" ">
<polygon fill="white" stroke="black" points="80,-88 80,-118 177,-118 177,-88 80,-88"/>
<text text-anchor="start" x="88" y="-106" font-family="Helvetica,sans-Serif" font-size="10.00">std::priority_queue</text>
<text text-anchor="middle" x="128.5" y="-95" font-family="Helvetica,sans-Serif" font-size="10.00">::push</text>
</a>
</g>
</g>
<!-- Node1&#45;&gt;Node4 -->
<g id="edge3" class="edge">
<title>Node1&#45;&gt;Node4</title>
<path fill="none" stroke="midnightblue" d="M33.26,-103C43.01,-103 56.2,-103 69.61,-103"/>
<polygon fill="midnightblue" stroke="midnightblue" points="69.86,-106.5 79.86,-103 69.86,-99.5 69.86,-106.5"/>
</g>
<!-- Node5 -->
<g id="node5" class="node">
<title>Node5</title>
<g id="a_node5"><a target="_blank" xlink:href="http://en.cppreference.com/w/cpp/container/priority_queue/size.html#" target="_top" xlink:title=" ">
<polygon fill="white" stroke="black" points="80,-39 80,-69 177,-69 177,-39 80,-39"/>
<text text-anchor="start" x="88" y="-57" font-family="Helvetica,sans-Serif" font-size="10.00">std::priority_queue</text>
<text text-anchor="middle" x="128.5" y="-46" font-family="Helvetica,sans-Serif" font-size="10.00">::size</text>
</a>
</g>
</g>
<!-- Node1&#45;&gt;Node5 -->
<g id="edge4" class="edge">
<title>Node1&#45;&gt;Node5</title>
<path fill="none" stroke="midnightblue" d="M33.22,-95.52C43.39,-90.71 56.93,-84.39 69,-79 73.37,-77.05 77.94,-75.04 82.51,-73.05"/>
<polygon fill="midnightblue" stroke="midnightblue" points="84.05,-76.2 91.84,-69.02 81.28,-69.77 84.05,-76.2"/>
</g>
<!-- Node6 -->
<g id="node6" class="node">
<title>Node6</title>
<g id="a_node6"><a target="_blank" xlink:href="http://en.cppreference.com/w/cpp/container/priority_queue/top.html#" target="_top" xlink:title=" ">
<polygon fill="white" stroke="black" points="70.5,-0.5 70.5,-19.5 186.5,-19.5 186.5,-0.5 70.5,-0.5"/>
<text text-anchor="middle" x="128.5" y="-7.5" font-family="Helvetica,sans-Serif" font-size="10.00">std::priority_queue::top</text>
</a>
</g>
</g>
<!-- Node1&#45;&gt;Node6 -->
<g id="edge5" class="edge">
<title>Node1&#45;&gt;Node6</title>
<path fill="none" stroke="midnightblue" d="M21.77,-93.49C29.19,-77.99 45.91,-47.3 69,-30 72.15,-27.64 75.59,-25.55 79.19,-23.69"/>
<polygon fill="midnightblue" stroke="midnightblue" points="80.67,-26.87 88.34,-19.56 77.78,-20.49 80.67,-26.87"/>
</g>
</g>
</svg>
