<?xml version="1.0" encoding="UTF-8" standalone="no"?>
<!DOCTYPE svg PUBLIC "-//W3C//DTD SVG 1.1//EN"
 "http://www.w3.org/Graphics/SVG/1.1/DTD/svg11.dtd">
<!-- Generated by graphviz version 2.44.1 (20200629.0846)
 -->
<!-- Title: main Pages: 1 -->
<svg width="270pt" height="215pt"
 viewBox="0.00 0.00 270.00 214.50" xmlns="http://www.w3.org/2000/svg" xmlns:xlink="http://www.w3.org/1999/xlink">
<g id="graph0" class="graph" transform="scale(1 1) rotate(0) translate(4 210.5)">
<title>main</title>
<polygon fill="white" stroke="transparent" points="-4,4 -4,-210.5 266,-210.5 266,4 -4,4"/>
<!-- Node1 -->
<g id="node1" class="node">
<title>Node1</title>
<g id="a_node1"><a xlink:title=" ">
<polygon fill="#bfbfbf" stroke="black" points="0,-93.5 0,-112.5 38,-112.5 38,-93.5 0,-93.5"/>
<text text-anchor="middle" x="19" y="-100.5" font-family="Helvetica,sans-Serif" font-size="10.00">main</text>
</a>
</g>
</g>
<!-- Node2 -->
<g id="node2" class="node">
<title>Node2</title>
<g id="a_node2"><a xlink:href="../../dd/d4e/heap__using__priority__queue_8cpp.html#aa8dca7b867074164d5f45b0f3851269d" target="_top" xlink:title=" ">
<polygon fill="white" stroke="black" points="74,-93.5 74,-112.5 107,-112.5 107,-93.5 74,-93.5"/>
<text text-anchor="middle" x="90.5" y="-100.5" font-family="Helvetica,sans-Serif" font-size="10.00">test</text>
</a>
</g>
</g>
<!-- Node1&#45;&gt;Node2 -->
<g id="edge1" class="edge">
<title>Node1&#45;&gt;Node2</title>
<path fill="none" stroke="midnightblue" d="M38.26,-103C46.07,-103 55.31,-103 63.79,-103"/>
<polygon fill="midnightblue" stroke="midnightblue" points="63.95,-106.5 73.95,-103 63.95,-99.5 63.95,-106.5"/>
</g>
<!-- Node3 -->
<g id="node3" class="node">
<title>Node3</title>
<g id="a_node3"><a target="_blank" xlink:href="http://en.cppreference.com/w/cpp/container/priority_queue/empty.html#" target="_top" xlink:title=" ">
<polygon fill="white" stroke="black" points="154,-176 154,-206 251,-206 251,-176 154,-176"/>
<text text-anchor="start" x="162" y="-194" font-family="Helvetica,sans-Serif" font-size="10.00">std::priority_queue</text>
<text text-anchor="middle" x="202.5" y="-183" font-family="Helvetica,sans-Serif" font-size="10.00">::empty</text>
</a>
</g>
</g>
<!-- Node2&#45;&gt;Node3 -->
<g id="edge2" class="edge">
<title>Node2&#45;&gt;Node3</title>
<path fill="none" stroke="midnightblue" d="M97.33,-112.77C105.85,-126.33 122.9,-150.89 143,-166 145.32,-167.74 147.77,-169.39 150.32,-170.94"/>
<polygon fill="midnightblue" stroke="midnightblue" points="148.78,-174.09 159.23,-175.87 152.17,-167.97 148.78,-174.09"/>
</g>
<!-- Node4 -->
<g id="node4" class="node">
<title>Node4</title>
<g id="a_node4"><a target="_blank" xlink:href="http://en.cppreference.com/w/cpp/container/priority_queue/pop.html#" target="_top" xlink:title=" ">
<polygon fill="white" stroke="black" points="143,-137.5 143,-156.5 262,-156.5 262,-137.5 143,-137.5"/>
<text text-anchor="middle" x="202.5" y="-144.5" font-family="Helvetica,sans-Serif" font-size="10.00">std::priority_queue::pop</text>
</a>
</g>
</g>
<!-- Node2&#45;&gt;Node4 -->
<g id="edge3" class="edge">
<title>Node2&#45;&gt;Node4</title>
<path fill="none" stroke="midnightblue" d="M107.02,-111.23C117.12,-116.41 130.65,-123.02 143,-128 148.39,-130.17 154.14,-132.28 159.84,-134.25"/>
<polygon fill="midnightblue" stroke="midnightblue" points="158.74,-137.58 169.33,-137.43 160.96,-130.94 158.74,-137.58"/>
</g>
<!-- Node5 -->
<g id="node5" class="node">
<title>Node5</title>
<g id="a_node5"><a target="_blank" xlink:href="http://en.cppreference.com/w/cpp/container/priority_queue/push.html#" target="_top" xlink:title=" ">
<polygon fill="white" stroke="black" points="154,-88 154,-118 251,-118 251,-88 154,-88"/>
<text text-anchor="start" x="162" y="-106" font-family="Helvetica,sans-Serif" font-size="10.00">std::priority_queue</text>
<text text-anchor="middle" x="202.5" y="-95" font-family="Helvetica,sans-Serif" font-size="10.00">::push</text>
</a>
</g>
</g>
<!-- Node2&#45;&gt;Node5 -->
<g id="edge4" class="edge">
<title>Node2&#45;&gt;Node5</title>
<path fill="none" stroke="midnightblue" d="M107.26,-103C117.01,-103 130.2,-103 143.61,-103"/>
<polygon fill="midnightblue" stroke="midnightblue" points="143.86,-106.5 153.86,-103 143.86,-99.5 143.86,-106.5"/>
</g>
<!-- Node6 -->
<g id="node6" class="node">
<title>Node6</title>
<g id="a_node6"><a target="_blank" xlink:href="http://en.cppreference.com/w/cpp/container/priority_queue/size.html#" target="_top" xlink:title=" ">
<polygon fill="white" stroke="black" points="154,-39 154,-69 251,-69 251,-39 154,-39"/>
<text text-anchor="start" x="162" y="-57" font-family="Helvetica,sans-Serif" font-size="10.00">std::priority_queue</text>
<text text-anchor="middle" x="202.5" y="-46" font-family="Helvetica,sans-Serif" font-size="10.00">::size</text>
</a>
</g>
</g>
<!-- Node2&#45;&gt;Node6 -->
<g id="edge5" class="edge">
<title>Node2&#45;&gt;Node6</title>
<path fill="none" stroke="midnightblue" d="M107.22,-95.52C117.39,-90.71 130.93,-84.39 143,-79 147.37,-77.05 151.94,-75.04 156.51,-73.05"/>
<polygon fill="midnightblue" stroke="midnightblue" points="158.05,-76.2 165.84,-69.02 155.28,-69.77 158.05,-76.2"/>
</g>
<!-- Node7 -->
<g id="node7" class="node">
<title>Node7</title>
<g id="a_node7"><a target="_blank" xlink:href="http://en.cppreference.com/w/cpp/container/priority_queue/top.html#" target="_top" xlink:title=" ">
<polygon fill="white" stroke="black" points="144.5,-0.5 144.5,-19.5 260.5,-19.5 260.5,-0.5 144.5,-0.5"/>
<text text-anchor="middle" x="202.5" y="-7.5" font-family="Helvetica,sans-Serif" font-size="10.00">std::priority_queue::top</text>
</a>
</g>
</g>
<!-- Node2&#45;&gt;Node7 -->
<g id="edge6" class="edge">
<title>Node2&#45;&gt;Node7</title>
<path fill="none" stroke="midnightblue" d="M95.77,-93.49C103.19,-77.99 119.91,-47.3 143,-30 146.15,-27.64 149.59,-25.55 153.19,-23.69"/>
<polygon fill="midnightblue" stroke="midnightblue" points="154.67,-26.87 162.34,-19.56 151.78,-20.49 154.67,-26.87"/>
</g>
</g>
</svg>
